<?xml version="1.0" standalone="no"?><!DOCTYPE svg PUBLIC "-//W3C//DTD SVG 1.1//EN" "http://www.w3.org/Graphics/SVG/1.1/DTD/svg11.dtd"><svg t="1547515675640" class="icon" style="" viewBox="0 0 1024 1024" version="1.1" xmlns="http://www.w3.org/2000/svg" p-id="1735" xmlns:xlink="http://www.w3.org/1999/xlink" width="64" height="64"><defs><style type="text/css"></style></defs><path d="M903.3 466.1c-0.1-12-5.3-23.4-14.4-31.3L540.5 130.7c-15.7-13.7-39.1-13.7-54.9 0L137.2 434.8c-9 7.9-14.3 19.3-14.4 31.3l-3.7 399.1c-0.2 23.3 18.6 42.4 41.8 42.4h159.5c23.1 0 41.8-18.8 41.8-42V692.8c0-23.2 18.7-42 41.8-42h225.6c23.1 0 41.8 18.8 41.8 42v172.9c0 23.2 18.7 42 41.8 42h152c23.2 0 42-19 41.8-42.4l-3.7-399.2z" fill="#333333" p-id="1736"></path></svg>