<?xml version="1.0" standalone="no"?><!DOCTYPE svg PUBLIC "-//W3C//DTD SVG 1.1//EN" "http://www.w3.org/Graphics/SVG/1.1/DTD/svg11.dtd"><svg t="1547544237876" class="icon" style="" viewBox="0 0 1024 1024" version="1.1" xmlns="http://www.w3.org/2000/svg" p-id="3578" xmlns:xlink="http://www.w3.org/1999/xlink" width="64" height="64"><defs><style type="text/css"></style></defs><path d="M1024 649.557333c0-35.498667-12.174222-62.520889-36.010667-78.222222 14.449778-8.192 35.726222-48.696889 35.726223-84.48-1.422222-59.107556-58.595556-102.968889-144.952889-102.968889h-228.920889c39.253333-106.609778 31.857778-250.538667-17.351111-327.281778C602.908444 10.353778 567.352889 0 542.72 0 459.662222 0 456.874667 80.042667 456.874667 107.292444c0 91.022222-13.141333 132.551111-29.582223 170.837334-12.970667 24.746667-92.444444 106.211556-173.738666 106.211555H101.319111C42.552889 384.341333-0.113778 433.550222 0 503.637333l39.480889 416.654223c4.778667 64.170667 36.295111 103.082667 99.555555 103.082666 0 0 31.459556 0.227556 55.068445 0.227556 12.003556 0 23.267556-0.056889 29.923555-0.227556 19.456-0.625778 35.555556-13.084444 49.720889-23.608889 10.069333-7.395556 18.033778-13.824 25.258667-13.824 3.242667 0 21.731556 10.581333 44.373333 20.195556 23.096889 9.784889 59.733333 17.863111 94.776889 17.863111H756.622222c106.723556 0 157.980444-39.992889 157.980445-106.666667 0-19.740444-4.551111-31.402667-15.473778-46.648889 42.837333-10.296889 80.839111-37.262222 80.839111-83.683555 0-17.294222-8.078222-44.942222-19.228444-52.337778 20.992-5.347556 63.317333-42.723556 63.260444-85.105778zM222.435556 981.333333c-19.057778 0.568889-87.495111 0-87.950223 0-24.519111 0-46.307556-23.153778-51.825777-54.215111L43.178667 494.023111c0-32.426667 26.055111-67.925333 60.871111-67.925333v0.227555l149.504 0.455111c2.56 0 5.12-0.341333 7.623111-0.455111v529.92a921.6 921.6 0 0 0-17.976889 12.856889c-6.314667 4.721778-16.896 11.832889-20.764444 12.288z m698.254222-275.057777h-5.802667l0.568889 38.684444c4.608 1.706667 21.731556 6.826667 21.731556 40.448 0 36.010667-47.274667 50.460444-87.096889 50.460444h0.056889l-0.625778 36.864c16.213333 3.584 22.016 17.749333 22.016 40.391112 0 39.651556-32.199111 68.209778-115.825778 68.209777H425.927111c-15.758222 0-47.786667-9.216-66.275555-18.147555-17.408-8.419556-45.283556-24.120889-54.954667-29.354667V419.328c82.944-22.983111 151.381333-94.492444 168.675555-127.544889 18.773333-43.633778 28.16-89.315556 28.16-189.44 0-49.777778 18.318222-56.490667 37.774223-56.490667 17.180444 0 44.544 19.000889 58.368 40.618667 40.96 63.886222 50.517333 201.557333-0.398223 304.64l-8.760888 35.726222 292.238222-0.056889c49.777778 2.673778 99.783111 23.04 99.783111 59.733334l-0.341333 11.491555c0.170667 0.512-1.194667 31.857778-17.92 45.624889-13.937778 11.662222-25.315556 12.003556-25.315556 12.003556l-0.284444 38.115555s16.839111 2.218667 25.656888 8.248889c13.255111 9.102222 19.285333 26.339556 18.545778 45.112889-0.853333 23.836444-37.660444 59.164444-60.188444 59.164445z" fill="#2c2c2c" p-id="3579"></path></svg>