<?xml version="1.0" standalone="no"?><!DOCTYPE svg PUBLIC "-//W3C//DTD SVG 1.1//EN" "http://www.w3.org/Graphics/SVG/1.1/DTD/svg11.dtd"><svg t="1547879442898" class="icon" style="" viewBox="0 0 1024 1024" version="1.1" xmlns="http://www.w3.org/2000/svg" p-id="1610" xmlns:xlink="http://www.w3.org/1999/xlink" width="64" height="64"><defs><style type="text/css"></style></defs><path d="M512.723989 64.621786c-247.411903 0-447.923636 178.424692-447.923636 398.584927 0 129.326461 63.071478 244.25091 170.281221 317.079612 0.63445 0.412392 0 179.090864 0 179.090864l169.003112-108.37222c33.051767 6.92983 70.327742 10.806113 105.743346 10.806113 247.399623 0 449.369567-178.415482 449.369567-398.603347C959.198623 243.047502 760.132822 64.621786 512.723989 64.621786L512.723989 64.621786 512.723989 64.621786zM512.723989 811.975049c-39.853683 0-84.650959-5.387707-120.933303-14.944364l-111.711268 69.563332 0-112.692618c0-4.279467-8.16496-8.631588-15.115256-13.255908-95.307669-63.71616-153.60133-164.271344-153.60133-277.4398 0-192.643532 179.870624-348.770382 399.764799-348.770382s398.954341 156.12685 398.954341 348.770382C910.081972 655.847176 732.618165 811.975049 512.723989 811.975049L512.723989 811.975049 512.723989 811.975049zM512.723989 811.975049" p-id="1611" fill="#2c2c2c"></path><path d="M715.939297 337.370751l-398.119323 0c-13.751189 0-24.907273 11.779278-24.907273 25.574469 0 13.729699 11.155061 25.507954 24.907273 25.507954l398.119323 0c13.753235 0 24.90625-11.778254 24.90625-25.507954C740.845547 349.149005 729.692532 337.370751 715.939297 337.370751L715.939297 337.370751 715.939297 337.370751zM715.939297 337.370751" p-id="1612" fill="#2c2c2c"></path><path d="M679.962921 534.484084c0-11.821233-9.664104-21.442358-21.506826-21.442358l-304.956503 0c-11.819187 0-21.399379 9.621125-21.399379 21.442358l0 6.770194c0 11.821233 9.580193 21.864984 21.399379 21.864984l304.956503 0c11.841699 0 21.506826-10.04375 21.506826-21.864984L679.962921 534.484084 679.962921 534.484084 679.962921 534.484084 679.962921 534.484084zM679.962921 534.484084" p-id="1613" fill="#2c2c2c"></path></svg>