<?xml version="1.0" standalone="no"?><!DOCTYPE svg PUBLIC "-//W3C//DTD SVG 1.1//EN" "http://www.w3.org/Graphics/SVG/1.1/DTD/svg11.dtd"><svg t="1547516899241" class="icon" style="" viewBox="0 0 1221 1024" version="1.1" xmlns="http://www.w3.org/2000/svg" p-id="2093" xmlns:xlink="http://www.w3.org/1999/xlink" width="76.3125" height="64"><defs><style type="text/css"></style></defs><path d="M 638.063 162.283 a 371.802 371.802 0 0 0 -346.484 236.917 a 25.9228 25.9228 0 1 0 48.3892 18.8026 c 48.1991 -123.842 165.232 -203.926 298.164 -203.926 a 25.9228 25.9228 0 0 0 0 -51.8455 Z" fill="#231815" p-id="2094"></path><path d="M 1197.13 74.63 C 1155.55 18.8787 1068.02 6.1593 943.796 37.8369 a 25.9228 25.9228 0 0 0 12.8231 50.2383 C 1055.92 62.7573 1128.37 69.1516 1155.57 105.616 c 14.8278 19.8914 17.5238 49.3742 7.98421 87.6017 c -10.2136 41.0098 -34.8229 90.9198 -71.1321 144.355 l -0.259227 0.3802 a 511.992 511.992 0 1 0 -843.561 536.048 a 520.529 520.529 0 0 0 57.8769 49.9445 l -0.622146 0.207382 c -61.5579 19.563 -116.428 28.8952 -158.647 26.9942 c -39.3508 -1.72818 -66.8462 -12.754 -81.674 -32.6454 c -28.1694 -37.7608 -11.7689 -112.107 44.9328 -203.926 A 25.9228 25.9228 0 1 0 66.3627 687.323 c -70.4926 114.147 -85.1649 204.807 -42.3924 262.166 c 24.5921 32.9738 65.2562 50.9469 120.973 53.4527 c 4.476 0.207382 9.00384 0.293791 13.6354 0.293792 c 46.2116 0 100.978 -9.95434 163.054 -29.6729 q 19.8568 -6.32515 40.3704 -13.8255 a 512.044 512.044 0 0 0 760.401 -447.6 a 516.554 516.554 0 0 0 -11.9245 -110.604 q 13.0651 -17.4892 24.834 -34.7883 c 40.2667 -59.2594 66.6906 -113.421 78.546 -160.963 c 13.4798 -54.0749 7.84596 -98.1954 -16.7288 -131.152 Z M 167.807 512.051 C 167.807 267.927 366.375 69.3244 610.551 69.3244 c 207.866 0 382.689 144.01 430.059 337.48 C 964.085 500.783 860.308 598.149 741.046 687.064 S 499.031 847.629 387.114 894.169 C 256.048 817.213 167.807 674.759 167.807 512.051 Z m 885.47 0 c 0 244.141 -198.603 442.743 -442.726 442.743 a 440.549 440.549 0 0 1 -162.294 -30.7962 c 104.348 -47.8016 215.695 -114.769 323.793 -195.285 s 204.029 -168.308 279.586 -254.665 c 1.07147 12.5293 1.64178 25.1969 1.64178 38.0028 Z" fill="#231815" p-id="2095"></path></svg>