<?xml version="1.0" standalone="no"?><!DOCTYPE svg PUBLIC "-//W3C//DTD SVG 1.1//EN" "http://www.w3.org/Graphics/SVG/1.1/DTD/svg11.dtd"><svg t="1547871336605" class="icon" style="" viewBox="0 0 1024 1024" version="1.1" xmlns="http://www.w3.org/2000/svg" p-id="2070" xmlns:xlink="http://www.w3.org/1999/xlink" width="64" height="64"><defs><style type="text/css"></style></defs><path d="M478.7 535.4c154.6 33.8 295.7-10.9 315-99.8 11.4-52.1-34.3-42.5-106.4-32.3l23.2-106.2c14.7-67.4-28.2-134.3-95.6-149l-98.6-21.5c-8.8-1.9-17.7-2.9-26.6-2.9-58.5 0-109.9 41.4-122.4 98.5L344 328.7c-60-38.7-99-66.6-110.1-15.3-19.4 88.8 90.2 188.2 244.8 222zM825.9 825.1c-34.4-96.2-109.5-171-204.4-205.4 15.5-13.3 28.6-29.3 38.7-47-24.7 4.8-51.4 7.5-79.9 7.5-35.6 0-72.2-4-108.8-12-53.7-11.7-102-30.7-142.6-54.4 6.9 41.2 27.8 78.8 59.4 106-95.2 34.4-170.4 109.5-204.6 206.2-5.4 15.3-3 32.4 6.4 45.7 9.4 13.3 24.8 21.2 41 21.2h0.1l547.4-0.8c16.3 0 31.7-8 41-21.4 9.4-13.3 11.7-30.3 6.3-45.6z m-321.1 51.2l-39.2-44.4 22.9-164c-5.3-4.6-8.8-11.3-8.8-18.9 0-13.9 11.2-25.1 25.1-25.1 13.9 0 25.1 11.2 25.1 25.1 0 7.6-3.5 14.3-8.8 18.9l22.9 164-39.2 44.4z" p-id="2071" fill="#d81e06"></path></svg>