<?xml version="1.0" standalone="no"?><!DOCTYPE svg PUBLIC "-//W3C//DTD SVG 1.1//EN" "http://www.w3.org/Graphics/SVG/1.1/DTD/svg11.dtd"><svg t="1547523639306" class="icon" style="" viewBox="0 0 1024 1024" version="1.1" xmlns="http://www.w3.org/2000/svg" p-id="14536" xmlns:xlink="http://www.w3.org/1999/xlink" width="64" height="64"><defs><style type="text/css"></style></defs><path d="M512 992c-60.8 0-108.8-41.6-124.8-96H160c-25.6 0-44.8-9.6-57.6-28.8-16-25.6-12.8-57.6 3.2-92.8 3.2-3.2 3.2-6.4 6.4-9.6L192 691.2V416c0-134.4 83.2-252.8 208-300.8C406.4 67.2 454.4 32 512 32s105.6 35.2 112 83.2C748.8 163.2 832 281.6 832 416v275.2l80 73.6c3.2 3.2 6.4 6.4 6.4 9.6 16 35.2 19.2 67.2 3.2 92.8-12.8 19.2-32 28.8-57.6 28.8h-227.2c-16 54.4-64 96-124.8 96z" p-id="14537" fill="#2c2c2c"></path></svg>